<svg width="539" height="513" viewBox="0 0 539 513" fill="none" xmlns="http://www.w3.org/2000/svg">
<path fill-rule="evenodd" clip-rule="evenodd" d="M256.972 23.003C328.382 22.7477 404.329 38.8226 447.043 96.05C488.592 151.715 475.259 226.206 459.06 293.752C443.165 360.03 421.15 431.462 359.589 460.715C298.285 489.845 229.14 461.849 168.199 431.965C107.991 402.44 49.6074 363.594 30.4735 299.324C9.91107 230.255 22.9122 153.136 68.5965 97.4029C113.624 42.4704 185.943 23.2569 256.972 23.003Z" fill="#EEE2DE"/>
<g clip-path="url(#clip0_210_4)">
<path d="M80.5685 98.6771C87.5414 95.7265 94.5143 92.7759 101.487 89.8114C101.891 90.6882 102.308 91.5511 102.712 92.428C96.2679 99.7209 84.8274 98.7467 77.4092 106.569C87.1795 112.289 96.6576 117.828 106.136 123.381C105.788 124.063 105.426 124.745 105.078 125.413C94.7787 123.729 86.9569 116.269 76.1844 111.148C78.9958 123.465 81.4871 134.446 83.9923 145.427C83.4356 145.956 82.865 146.485 82.3083 147C80.6938 145.399 78.0772 144.022 77.6319 142.143C75.9896 135.267 75.0988 128.211 73.8601 121.238C73.4704 119.067 72.872 116.937 72.3709 114.794C71.675 114.641 70.9791 114.488 70.2832 114.335C66.8455 123.298 63.4078 132.275 59.9005 141.461C55.753 137.327 57.437 131.05 67.6945 110.994C58.4948 113.792 50.1162 116.353 41.7237 118.914C41.4732 118.232 41.2366 117.536 41 116.854C49.8796 113.207 58.7731 109.561 69.3507 105.219C61.9603 100.152 55.7669 95.8935 49.5734 91.6486C49.9214 91.064 50.2693 90.4795 50.6173 89.8949C56.5602 92.929 62.5031 95.9631 69.3368 99.4565C67.8198 88.364 66.3862 77.9255 64.9666 67.4732C65.8295 67.3201 66.7063 67.167 67.5692 67C69.5177 76.659 71.4523 86.318 73.4008 95.977C73.874 96.2276 74.3333 96.4642 74.8065 96.7147C78.9541 88.3083 83.1016 79.9019 87.263 71.4816C88.0285 71.8434 88.794 72.1914 89.5595 72.5532C86.1496 80.8205 82.7397 89.0877 79.3299 97.3549C79.2324 97.8977 79.135 98.4266 79.0376 98.9555C79.5386 98.858 80.0536 98.7606 80.5685 98.6771Z" fill="#CBCDA9"/>
</g>
<g clip-path="url(#clip1_210_4)">
<path d="M360.809 85C356.749 77.7072 352.467 70.7183 349.097 63.3149C348.461 61.9199 350.906 57.7901 352.881 56.7818C358.337 53.9779 364.235 51.8923 370.119 50.0967C371.583 49.6547 374.497 50.884 375.409 52.2514C378.572 57.0028 381.127 62.1547 383.945 67.1409C386.03 70.8288 385.561 73.6326 381.417 75.4973C374.829 78.4531 368.282 81.547 360.809 85ZM362.881 79.71C368.903 76.3674 374.138 73.4669 379.262 70.6354C372.467 54.9586 367.702 53.605 354.318 63.1078C356.97 68.2321 359.649 73.4393 362.881 79.71Z" fill="#CBCDA9"/>
</g>
<g clip-path="url(#clip2_210_4)">
<path d="M319.19 413.16C328.23 404.62 338.22 397.92 351.16 397.39C357.4 397.13 362.66 399.72 367.56 403.47C368.88 404.48 371.35 404.83 373 404.4C381.45 402.18 389.72 399.23 398.24 397.35C401.59 396.61 405.4 397.96 409.01 398.35C413.48 403.89 417.79 404.91 424.77 401.02C434.25 395.73 444.98 393.65 456.12 396.34C461.84 397.72 465.99 400.76 468.51 405.61C476.3 402.93 483.94 399.69 491.9 397.72C499.59 395.81 507.6 395.2 515.48 394.01C515.6 394.7 515.72 395.4 515.84 396.09C513.25 396.54 510.62 396.86 508.07 397.48C497.63 399.99 487.17 402.45 476.79 405.2C471.91 406.5 469.95 409.52 470.46 415.13C471.3 424.29 469.1 432.92 462.04 439.6C458.55 442.91 453.16 444.19 450.69 442.35C447.89 440.26 446.72 434.25 449.31 430.37C453.51 424.09 458.14 418.04 463.09 412.32C466.45 408.44 466.86 405.98 462.72 402.57C454.77 396.02 445.58 396.79 436.6 399.23C430.25 400.95 424.25 403.96 417.72 406.54C418.65 409.61 419.58 412.04 420.11 414.55C422.73 426.91 417.5 436.53 409.03 444.8C406.32 447.44 403.23 449.82 399.99 451.76C392.68 456.14 388.23 453.55 388.2 445.02C388.17 435.65 391.32 427.35 397.75 420.57C402.48 415.58 407.69 411.04 413.37 405.65C412.27 405.02 410.77 404.16 409.28 403.29C407.05 402.04 404.92 399.96 402.57 399.67C392.05 398.37 382.94 403.16 373.79 407.35C373.36 407.55 373.79 409.6 373.82 410.79C377.03 431.57 368.84 447.26 351.96 458.77C345.71 463.03 338.82 462.22 335.83 456.65C334.12 453.46 333.71 448.92 334.34 445.26C336.33 433.65 343.8 425.24 352.19 417.57C353.29 416.56 354.44 415.61 355.57 414.63C359.34 412.18 363.1 409.73 367.06 407.15C361.27 401.11 354.69 398.29 347.3 399.93C335.21 402.62 325.19 409.02 317.98 419.36C310.12 427.22 306.34 437.21 303.38 447.62C302.92 447.51 302.46 447.4 302 447.29C302.52 444.24 302.53 440.98 303.67 438.18C305.52 433.66 308.19 429.47 310.35 425.07C311.04 423.67 311.24 422.03 311.67 420.5C312.18 419.71 312.68 418.91 313.19 418.12C315.19 416.47 317.19 414.81 319.19 413.16ZM368.34 408.41C361.22 414.28 353.97 419.11 348.22 425.32C342.22 431.81 336.8 439.22 336.98 448.98C337.15 457.85 342.42 460.87 350.17 456.41C361.22 450.06 366.84 439.55 370.56 428.1C372.48 422.23 372.78 415.74 368.34 408.41ZM415.22 408.97C406.42 414.13 399.57 420.48 395.23 429.37C392.52 434.93 390.58 440.6 391.36 446.95C391.84 450.87 393.76 451.8 397.08 450.08C409.14 443.84 423.46 428.19 415.22 408.97ZM467.57 411.83C459.36 418.03 454.43 425.64 451.19 434.32C450.62 435.84 451.89 439.52 453.02 439.86C454.76 440.39 457.59 439.46 459.14 438.17C467.15 431.49 468.11 422.36 467.57 411.83Z" fill="#CBCDA9"/>
</g>
<defs>
<clipPath id="clip0_210_4">
<rect width="65.1357" height="80" fill="white" transform="translate(41 67)"/>
</clipPath>
<clipPath id="clip1_210_4">
<rect width="36.1602" height="35" fill="white" transform="translate(349 50)"/>
</clipPath>
<clipPath id="clip2_210_4">
<rect width="213.83" height="67.48" fill="white" transform="translate(302 394)"/>
</clipPath>
</defs>
</svg>
